<mxfile host="Electron" modified="2023-07-07T18:01:58.072Z" agent="Mozilla/5.0 (Macintosh; Intel Mac OS X 10_15_7) AppleWebKit/537.36 (KHTML, like Gecko) draw.io/21.6.1 Chrome/112.0.5615.204 Electron/24.6.1 Safari/537.36" etag="IzTfJtUPAtl8jYyNIMhm" version="21.6.1" type="device">
  <diagram name="Page-1" id="X_KO8a_qlwBN1eDuqe9O">
    <mxGraphModel dx="1434" dy="907" grid="1" gridSize="10" guides="1" tooltips="1" connect="1" arrows="1" fold="1" page="1" pageScale="1" pageWidth="827" pageHeight="1169" math="0" shadow="0">
      <root>
        <mxCell id="0" />
        <mxCell id="1" parent="0" />
        <mxCell id="DqdjU2QXwE_1-AM5ZZaD-4" style="edgeStyle=orthogonalEdgeStyle;rounded=1;orthogonalLoop=1;jettySize=auto;html=1;entryX=0;entryY=0.5;entryDx=0;entryDy=0;labelBackgroundColor=none;fontColor=default;" edge="1" parent="1" source="DqdjU2QXwE_1-AM5ZZaD-1" target="DqdjU2QXwE_1-AM5ZZaD-2">
          <mxGeometry relative="1" as="geometry" />
        </mxCell>
        <mxCell id="DqdjU2QXwE_1-AM5ZZaD-1" value="Customer" style="shape=umlActor;verticalLabelPosition=bottom;verticalAlign=top;html=1;outlineConnect=0;rounded=1;labelBackgroundColor=none;" vertex="1" parent="1">
          <mxGeometry x="40" y="430" width="30" height="60" as="geometry" />
        </mxCell>
        <mxCell id="DqdjU2QXwE_1-AM5ZZaD-10" style="edgeStyle=orthogonalEdgeStyle;rounded=0;orthogonalLoop=1;jettySize=auto;html=1;entryX=0.5;entryY=1;entryDx=0;entryDy=0;" edge="1" parent="1" source="DqdjU2QXwE_1-AM5ZZaD-2" target="DqdjU2QXwE_1-AM5ZZaD-5">
          <mxGeometry relative="1" as="geometry" />
        </mxCell>
        <mxCell id="DqdjU2QXwE_1-AM5ZZaD-13" style="edgeStyle=orthogonalEdgeStyle;rounded=0;orthogonalLoop=1;jettySize=auto;html=1;entryX=0.5;entryY=1;entryDx=0;entryDy=0;" edge="1" parent="1" source="DqdjU2QXwE_1-AM5ZZaD-2" target="DqdjU2QXwE_1-AM5ZZaD-14">
          <mxGeometry relative="1" as="geometry">
            <mxPoint x="450" y="300" as="targetPoint" />
          </mxGeometry>
        </mxCell>
        <mxCell id="DqdjU2QXwE_1-AM5ZZaD-15" style="edgeStyle=orthogonalEdgeStyle;rounded=0;orthogonalLoop=1;jettySize=auto;html=1;" edge="1" parent="1" source="DqdjU2QXwE_1-AM5ZZaD-2">
          <mxGeometry relative="1" as="geometry">
            <mxPoint x="185" y="570" as="targetPoint" />
          </mxGeometry>
        </mxCell>
        <mxCell id="DqdjU2QXwE_1-AM5ZZaD-22" style="edgeStyle=orthogonalEdgeStyle;rounded=0;orthogonalLoop=1;jettySize=auto;html=1;entryX=0.5;entryY=0;entryDx=0;entryDy=0;" edge="1" parent="1" source="DqdjU2QXwE_1-AM5ZZaD-2" target="DqdjU2QXwE_1-AM5ZZaD-21">
          <mxGeometry relative="1" as="geometry">
            <Array as="points">
              <mxPoint x="555" y="470" />
            </Array>
          </mxGeometry>
        </mxCell>
        <mxCell id="DqdjU2QXwE_1-AM5ZZaD-2" value="Login" style="ellipse;whiteSpace=wrap;html=1;rounded=1;labelBackgroundColor=none;" vertex="1" parent="1">
          <mxGeometry x="140" y="430" width="90" height="60" as="geometry" />
        </mxCell>
        <mxCell id="DqdjU2QXwE_1-AM5ZZaD-8" value="&amp;lt;&amp;lt;Include&amp;gt;&amp;gt;" style="edgeStyle=orthogonalEdgeStyle;rounded=1;orthogonalLoop=1;jettySize=auto;html=1;entryX=0.378;entryY=0.983;entryDx=0;entryDy=0;entryPerimeter=0;dashed=1;labelBackgroundColor=none;fontColor=default;exitX=0;exitY=0.5;exitDx=0;exitDy=0;" edge="1" parent="1" source="DqdjU2QXwE_1-AM5ZZaD-5" target="DqdjU2QXwE_1-AM5ZZaD-6">
          <mxGeometry relative="1" as="geometry">
            <mxPoint x="110" y="300" as="sourcePoint" />
            <Array as="points">
              <mxPoint x="74" y="300" />
            </Array>
          </mxGeometry>
        </mxCell>
        <mxCell id="DqdjU2QXwE_1-AM5ZZaD-9" value="&amp;lt;&amp;lt;Include&amp;gt;&amp;gt;" style="edgeStyle=orthogonalEdgeStyle;rounded=1;orthogonalLoop=1;jettySize=auto;html=1;entryX=0.578;entryY=1.067;entryDx=0;entryDy=0;entryPerimeter=0;labelBackgroundColor=none;fontColor=default;dashed=1;exitX=1;exitY=0.5;exitDx=0;exitDy=0;" edge="1" parent="1" source="DqdjU2QXwE_1-AM5ZZaD-5" target="DqdjU2QXwE_1-AM5ZZaD-7">
          <mxGeometry relative="1" as="geometry">
            <mxPoint x="260" y="300" as="sourcePoint" />
            <Array as="points">
              <mxPoint x="302" y="300" />
            </Array>
          </mxGeometry>
        </mxCell>
        <mxCell id="DqdjU2QXwE_1-AM5ZZaD-5" value="Gestione dati del corpo" style="ellipse;whiteSpace=wrap;html=1;rounded=1;labelBackgroundColor=none;" vertex="1" parent="1">
          <mxGeometry x="140" y="270" width="90" height="60" as="geometry" />
        </mxCell>
        <mxCell id="DqdjU2QXwE_1-AM5ZZaD-6" value="Aggiunta dati del corpo" style="ellipse;whiteSpace=wrap;html=1;rounded=1;labelBackgroundColor=none;" vertex="1" parent="1">
          <mxGeometry x="40" y="160" width="90" height="60" as="geometry" />
        </mxCell>
        <mxCell id="DqdjU2QXwE_1-AM5ZZaD-7" value="Visualizzazione dati del corpo" style="ellipse;whiteSpace=wrap;html=1;rounded=1;labelBackgroundColor=none;" vertex="1" parent="1">
          <mxGeometry x="250" y="160" width="90" height="60" as="geometry" />
        </mxCell>
        <mxCell id="DqdjU2QXwE_1-AM5ZZaD-12" value="&amp;lt;&amp;lt;Extends&amp;gt;&amp;gt;" style="edgeStyle=orthogonalEdgeStyle;rounded=0;orthogonalLoop=1;jettySize=auto;html=1;entryX=0.5;entryY=0;entryDx=0;entryDy=0;dashed=1;" edge="1" parent="1" source="DqdjU2QXwE_1-AM5ZZaD-11" target="DqdjU2QXwE_1-AM5ZZaD-5">
          <mxGeometry relative="1" as="geometry" />
        </mxCell>
        <mxCell id="DqdjU2QXwE_1-AM5ZZaD-11" value="Accettare o&amp;nbsp;&lt;br&gt;rifiutare privacy" style="ellipse;whiteSpace=wrap;html=1;rounded=1;labelBackgroundColor=none;" vertex="1" parent="1">
          <mxGeometry x="140" y="160" width="90" height="60" as="geometry" />
        </mxCell>
        <mxCell id="DqdjU2QXwE_1-AM5ZZaD-14" value="Visualizzare schede" style="ellipse;whiteSpace=wrap;html=1;rounded=1;labelBackgroundColor=none;" vertex="1" parent="1">
          <mxGeometry x="510" y="270" width="90" height="60" as="geometry" />
        </mxCell>
        <mxCell id="DqdjU2QXwE_1-AM5ZZaD-19" value="&lt;meta charset=&quot;utf-8&quot;&gt;&lt;span style=&quot;color: rgb(0, 0, 0); font-family: Helvetica; font-size: 11px; font-style: normal; font-variant-ligatures: normal; font-variant-caps: normal; font-weight: 400; letter-spacing: normal; orphans: 2; text-align: center; text-indent: 0px; text-transform: none; widows: 2; word-spacing: 0px; -webkit-text-stroke-width: 0px; background-color: rgb(251, 251, 251); text-decoration-thickness: initial; text-decoration-style: initial; text-decoration-color: initial; float: none; display: inline !important;&quot;&gt;&amp;lt;&amp;lt;Include&amp;gt;&amp;gt;&lt;/span&gt;" style="edgeStyle=orthogonalEdgeStyle;rounded=0;orthogonalLoop=1;jettySize=auto;html=1;entryX=0.5;entryY=0;entryDx=0;entryDy=0;dashed=1;" edge="1" parent="1" source="DqdjU2QXwE_1-AM5ZZaD-16" target="DqdjU2QXwE_1-AM5ZZaD-17">
          <mxGeometry x="0.2593" relative="1" as="geometry">
            <mxPoint as="offset" />
          </mxGeometry>
        </mxCell>
        <mxCell id="DqdjU2QXwE_1-AM5ZZaD-20" value="&lt;meta charset=&quot;utf-8&quot;&gt;&lt;span style=&quot;color: rgb(0, 0, 0); font-family: Helvetica; font-size: 11px; font-style: normal; font-variant-ligatures: normal; font-variant-caps: normal; font-weight: 400; letter-spacing: normal; orphans: 2; text-align: center; text-indent: 0px; text-transform: none; widows: 2; word-spacing: 0px; -webkit-text-stroke-width: 0px; background-color: rgb(251, 251, 251); text-decoration-thickness: initial; text-decoration-style: initial; text-decoration-color: initial; float: none; display: inline !important;&quot;&gt;&amp;lt;&amp;lt;Include&amp;gt;&amp;gt;&lt;/span&gt;" style="edgeStyle=orthogonalEdgeStyle;rounded=0;orthogonalLoop=1;jettySize=auto;html=1;entryX=0.5;entryY=0;entryDx=0;entryDy=0;dashed=1;" edge="1" parent="1" source="DqdjU2QXwE_1-AM5ZZaD-16" target="DqdjU2QXwE_1-AM5ZZaD-18">
          <mxGeometry x="0.2" relative="1" as="geometry">
            <Array as="points">
              <mxPoint x="85" y="600" />
            </Array>
            <mxPoint as="offset" />
          </mxGeometry>
        </mxCell>
        <mxCell id="DqdjU2QXwE_1-AM5ZZaD-16" value="Gestione feedback" style="ellipse;whiteSpace=wrap;html=1;rounded=1;labelBackgroundColor=none;" vertex="1" parent="1">
          <mxGeometry x="140" y="570" width="90" height="60" as="geometry" />
        </mxCell>
        <mxCell id="DqdjU2QXwE_1-AM5ZZaD-17" value="Visualizzazione&lt;br&gt;feedback" style="ellipse;whiteSpace=wrap;html=1;rounded=1;labelBackgroundColor=none;" vertex="1" parent="1">
          <mxGeometry x="250" y="670" width="90" height="60" as="geometry" />
        </mxCell>
        <mxCell id="DqdjU2QXwE_1-AM5ZZaD-18" value="Aggiunta&amp;nbsp;&lt;br&gt;feedback" style="ellipse;whiteSpace=wrap;html=1;rounded=1;labelBackgroundColor=none;" vertex="1" parent="1">
          <mxGeometry x="40" y="670" width="90" height="60" as="geometry" />
        </mxCell>
        <mxCell id="DqdjU2QXwE_1-AM5ZZaD-26" value="&lt;meta charset=&quot;utf-8&quot;&gt;&lt;span style=&quot;color: rgb(0, 0, 0); font-family: Helvetica; font-size: 11px; font-style: normal; font-variant-ligatures: normal; font-variant-caps: normal; font-weight: 400; letter-spacing: normal; orphans: 2; text-align: center; text-indent: 0px; text-transform: none; widows: 2; word-spacing: 0px; -webkit-text-stroke-width: 0px; background-color: rgb(251, 251, 251); text-decoration-thickness: initial; text-decoration-style: initial; text-decoration-color: initial; float: none; display: inline !important;&quot;&gt;&amp;lt;&amp;lt;Include&amp;gt;&amp;gt;&lt;/span&gt;" style="edgeStyle=orthogonalEdgeStyle;rounded=0;orthogonalLoop=1;jettySize=auto;html=1;entryX=0.5;entryY=0;entryDx=0;entryDy=0;dashed=1;" edge="1" parent="1" source="DqdjU2QXwE_1-AM5ZZaD-21" target="DqdjU2QXwE_1-AM5ZZaD-23">
          <mxGeometry relative="1" as="geometry" />
        </mxCell>
        <mxCell id="DqdjU2QXwE_1-AM5ZZaD-27" value="&lt;meta charset=&quot;utf-8&quot;&gt;&lt;span style=&quot;color: rgb(0, 0, 0); font-family: Helvetica; font-size: 11px; font-style: normal; font-variant-ligatures: normal; font-variant-caps: normal; font-weight: 400; letter-spacing: normal; orphans: 2; text-align: center; text-indent: 0px; text-transform: none; widows: 2; word-spacing: 0px; -webkit-text-stroke-width: 0px; background-color: rgb(251, 251, 251); text-decoration-thickness: initial; text-decoration-style: initial; text-decoration-color: initial; float: none; display: inline !important;&quot;&gt;&amp;lt;&amp;lt;Include&amp;gt;&amp;gt;&lt;/span&gt;" style="edgeStyle=orthogonalEdgeStyle;rounded=0;orthogonalLoop=1;jettySize=auto;html=1;entryX=0.5;entryY=0;entryDx=0;entryDy=0;dashed=1;" edge="1" parent="1" source="DqdjU2QXwE_1-AM5ZZaD-21" target="DqdjU2QXwE_1-AM5ZZaD-24">
          <mxGeometry relative="1" as="geometry" />
        </mxCell>
        <mxCell id="DqdjU2QXwE_1-AM5ZZaD-21" value="Gestione prenotazioni" style="ellipse;whiteSpace=wrap;html=1;rounded=1;labelBackgroundColor=none;" vertex="1" parent="1">
          <mxGeometry x="520" y="570" width="90" height="60" as="geometry" />
        </mxCell>
        <mxCell id="DqdjU2QXwE_1-AM5ZZaD-23" value="Prenotazione&lt;br&gt;in sala" style="ellipse;whiteSpace=wrap;html=1;rounded=1;labelBackgroundColor=none;" vertex="1" parent="1">
          <mxGeometry x="620" y="670" width="90" height="60" as="geometry" />
        </mxCell>
        <mxCell id="DqdjU2QXwE_1-AM5ZZaD-24" value="Visualizzazione&lt;br&gt;pt in sala" style="ellipse;whiteSpace=wrap;html=1;rounded=1;labelBackgroundColor=none;" vertex="1" parent="1">
          <mxGeometry x="420" y="670" width="90" height="60" as="geometry" />
        </mxCell>
      </root>
    </mxGraphModel>
  </diagram>
</mxfile>
